HIERARCHY
ROOT ROOT
{
	OFFSET 0.000000 56.020000 -5.659234
	CHANNELS 6 Xposition Yposition Zposition Xrotation Yrotation Zrotation 
	JOINT C_spine0001_bind_JNT
	{
		OFFSET 0.000000 1.618999 0.000000
		CHANNELS 3 Xrotation Yrotation Zrotation
		JOINT C_spine0002_bind_JNT
		{
			OFFSET 0.000000 4.942001 0.000001
			CHANNELS 3 Xrotation Yrotation Zrotation
			JOINT C_spine0003_bind_JNT
			{
				OFFSET 0.000000 4.942001 -0.000000
				CHANNELS 3 Xrotation Yrotation Zrotation
				JOINT C_neck0001_bind_JNT
				{
					OFFSET 0.000000 17.026009 -0.000000
					CHANNELS 3 Xrotation Yrotation Zrotation
					JOINT C_neck0002_bind_JNT
					{
						OFFSET 0.000000 3.249985 0.000000
						CHANNELS 3 Xrotation Yrotation Zrotation
						JOINT C_head_bind_JNT
						{
							OFFSET 0.000000 5.278008 0.000000
							CHANNELS 3 Xrotation Yrotation Zrotation
							End Site
							{
								OFFSET 0.000000 0.000000 0.000000
							}
						}
					}
				}
				JOINT L_clavicle_bind_JNT
				{
					OFFSET 4.590000 12.067001 0.834000
					CHANNELS 3 Xrotation Yrotation Zrotation
					JOINT L_armUpper0001_bind_JNT
					{
						OFFSET 7.812635 0.512001 -3.452945
						CHANNELS 3 Xrotation Yrotation Zrotation
						JOINT L_armLower0001_bind_JNT
						{
							OFFSET 15.265892 -6.552116 -0.058157
							CHANNELS 3 Xrotation Yrotation Zrotation
							JOINT L_hand0001_bind_JNT
							{
								OFFSET 14.747667 -6.369995 5.049225
								CHANNELS 3 Xrotation Yrotation Zrotation
								End Site
								{
									OFFSET 0.000000 0.000000 0.000000
								}
							}
						}
					}
				}
				JOINT R_clavicle_bind_JNT
				{
					OFFSET -4.590000 12.067001 0.834000
					CHANNELS 3 Xrotation Yrotation Zrotation
					JOINT R_armUpper0001_bind_JNT
					{
						OFFSET -7.812635 0.512001 -3.452945
						CHANNELS 3 Xrotation Yrotation Zrotation
						JOINT R_armLower0001_bind_JNT
						{
							OFFSET -15.265890 -6.552124 -0.058160
							CHANNELS 3 Xrotation Yrotation Zrotation
							JOINT R_hand0001_bind_JNT
							{
								OFFSET -14.746784 -6.369629 5.048937
								CHANNELS 3 Xrotation Yrotation Zrotation
								End Site
								{
									OFFSET 0.000000 0.000000 0.000000
								}
							}
						}
					}
				}
			}
		}
	}
	JOINT C_pelvis0001_bind_JNT
	{
		OFFSET -0.000000 0.000000 0.000000
		CHANNELS 3 Xrotation Yrotation Zrotation
		JOINT L_legUpper0001_bind_JNT
		{
			OFFSET 6.599999 -6.027000 0.539000
			CHANNELS 3 Xrotation Yrotation Zrotation
			JOINT L_legLower0001_bind_JNT
			{
				OFFSET -0.140713 -19.187443 0.040261
				CHANNELS 3 Xrotation Yrotation Zrotation
				JOINT L_foot0001_bind_JNT
				{
					OFFSET -0.132215 -18.028637 -1.138370
					CHANNELS 3 Xrotation Yrotation Zrotation
					JOINT L_foot0002_bind_JNT
					{
						OFFSET 0.007014 -4.693133 9.886524
						CHANNELS 3 Xrotation Yrotation Zrotation
						End Site
						{
							OFFSET 0.000000 0.000000 0.000000
						}
					}
				}
			}
		}
		JOINT R_legUpper0001_bind_JNT
		{
			OFFSET -6.599999 -6.027000 0.539000
			CHANNELS 3 Xrotation Yrotation Zrotation
			JOINT R_legLower0001_bind_JNT
			{
				OFFSET 0.140710 -19.187164 0.040550
				CHANNELS 3 Xrotation Yrotation Zrotation
				JOINT R_foot0001_bind_JNT
				{
					OFFSET 0.132215 -18.028633 -1.138362
					CHANNELS 3 Xrotation Yrotation Zrotation
					JOINT R_foot0002_bind_JNT
					{
						OFFSET -0.007014 -4.693128 9.886505
						CHANNELS 3 Xrotation Yrotation Zrotation
						End Site
						{
							OFFSET 0.000000 0.000000 0.000000
						}
					}
				}
			}
		}
	}
}
MOTION
Frames: 5
Frame Time: 0.033333
-16.455130 48.619133 -84.102295 -0.028165 -22.894058 -0.148499 168.409622 38.405361 -174.076431 -3.253821 -0.712831 -1.126574 5.380481 2.331203 -1.040916 18.871187 -7.271852 6.370947 0.116102 -0.320806 -0.385119 2.665423 -13.796020 11.376483 6.557240 5.962327 6.591804 -28.155521 2.250742 -69.398735 -10.578047 -6.699671 -5.373484 1.313671 -15.441146 -7.973501 3.237818 5.419106 -11.686260 13.975766 -45.768982 65.697121 -4.506802 -31.648834 -9.139194 -4.263237 14.974064 16.988302 170.829346 36.595840 -173.617142 -9.225697 15.350032 17.092035 13.328879 3.084798 0.137308 3.907540 7.133950 -15.430658 -9.918845 -0.020914 -3.065863 -18.365911 -14.707630 0.475176 20.257029 -5.717734 2.506457 -8.195561 -12.036160 -0.353261 -2.834709 -0.899016 -1.330439 
-15.090682 48.346764 -83.524666 -0.057172 -15.634849 -0.127012 168.395432 45.500366 -173.132492 -3.225898 -1.084968 -0.992106 4.927378 2.218274 -0.594192 19.386723 -7.535785 6.280073 0.108348 -0.623443 -0.284968 3.047731 -14.124955 11.501156 7.041301 6.451754 7.034226 -26.452850 3.022990 -71.110481 -9.882572 -7.143173 -5.644679 1.365743 -16.458799 -8.259137 3.110440 5.794779 -10.966746 15.323443 -47.301563 64.975983 -4.659826 -31.914665 -9.445593 -2.829609 14.713207 17.053616 171.443756 43.328323 -173.318710 -9.978128 15.172361 18.523815 18.095573 4.035820 0.776696 4.921687 7.206960 -15.771183 -12.419163 0.527879 -4.915902 -16.660227 -12.460604 1.965147 19.230280 -5.118150 2.717319 -7.587323 -13.649763 -1.231183 -3.227095 -0.791091 -1.617668 
-14.069464 48.096298 -83.038300 -0.033632 -13.463840 -0.125983 169.721268 48.457233 -173.981949 -3.264987 -0.941920 -0.693033 5.091898 1.981026 -0.063965 19.750631 -7.991063 6.677895 0.034831 -0.588728 -0.180077 3.418748 -14.694164 11.878152 7.621020 7.012121 7.741126 -25.229639 4.032259 -72.342606 -8.758394 -6.495674 -6.131710 1.844172 -16.600616 -8.586398 3.352157 5.586439 -10.498135 13.867490 -47.447319 63.520905 -5.188342 -32.624790 -10.186034 -1.827094 14.600820 17.106428 172.065170 46.035595 -173.914597 -12.158216 14.542117 20.217943 23.654413 4.523054 1.281476 6.690406 6.914723 -14.599698 -14.374015 1.208621 -7.837179 -15.015817 -10.052325 3.687774 18.561398 -5.439906 3.177917 -7.940093 -14.791991 -3.107647 -3.511088 -1.773873 -1.306240 
-13.487450 47.900307 -82.656715 -0.030521 -14.118373 -0.098835 170.714523 49.227100 -174.347397 -3.287778 -1.050528 -0.449712 4.609801 1.718323 0.375309 20.008024 -8.002797 6.812953 0.119680 -0.454473 -0.676901 3.728901 -14.734435 12.541994 8.214826 7.126141 8.964056 -23.585821 5.231047 -74.589851 -7.991632 -4.884759 -5.572977 2.263989 -16.727930 -8.611499 3.750744 4.767865 -10.354336 10.365534 -45.636715 61.761799 -5.997299 -32.380199 -11.320358 -0.822123 13.068366 16.913195 172.634903 46.695049 -174.858322 -14.934841 13.258985 21.497375 29.910995 3.719874 1.935199 7.023872 5.864732 -13.033453 -15.263494 1.218095 -9.717766 -13.290088 -8.284118 5.849549 16.826880 -5.821371 2.821600 -8.827200 -15.444235 -4.376119 -2.802219 -1.660418 -1.252505 
-12.974956 47.672810 -82.318886 -0.008588 -17.534800 -0.065990 172.509216 47.530174 -175.268433 -3.055247 -1.048905 -0.117327 4.448031 1.811954 1.070238 20.091749 -8.491451 6.410324 -0.172519 -0.526393 -0.111545 3.446330 -14.613462 11.577900 8.627848 6.311388 9.654532 -22.498753 6.637960 -75.858994 -6.314055 -2.593477 -4.781559 1.756607 -15.976402 -9.042068 4.144292 3.482913 -11.282839 5.964306 -42.211197 60.831383 -7.066302 -32.487522 -11.886455 -1.128708 12.163073 16.938686 173.564407 45.346497 -175.783356 -17.099411 10.795897 21.091627 36.683037 2.528321 2.380933 5.139574 3.465002 -10.860180 -16.492668 0.788366 -10.119740 -11.748124 -6.338161 7.379996 16.451937 -5.591279 2.831029 -9.696994 -15.499549 -5.279809 -2.580289 -1.619706 -1.552026 
